{
    "asset" : {
        "generator" : "Khronos glTF Blender I/O v1.0.5",
        "version" : "2.0"
    },
    "scene" : 0,
    "scenes" : [
        {
            "name" : "Scene",
            "nodes" : [
                0
            ]
        }
    ],
    "nodes" : [
        {
            "mesh" : 0,
            "name" : "Plus"
        }
    ],
    "materials" : [
        {
            "doubleSided" : true,
            "name" : "Plus:initialShadingGroup",
            "pbrMetallicRoughness" : {
                "baseColorFactor" : [
                    0.800000011920929,
                    0.800000011920929,
                    0.800000011920929,
                    1
                ],
                "metallicFactor" : 0,
                "roughnessFactor" : 0.5
            }
        },
        {
            "doubleSided" : true,
            "name" : "initialShadingGroup",
            "pbrMetallicRoughness" : {
                "baseColorFactor" : [
                    0.800000011920929,
                    0.800000011920929,
                    0.800000011920929,
                    1
                ],
                "metallicFactor" : 0,
                "roughnessFactor" : 0.5
            }
        }
    ],
    "meshes" : [
        {
            "name" : "Plus",
            "primitives" : [
                {
                    "attributes" : {
                        "POSITION" : 0,
                        "NORMAL" : 1,
                        "TEXCOORD_0" : 2
                    },
                    "indices" : 3,
                    "material" : 0
                },
                {
                    "attributes" : {
                        "POSITION" : 4,
                        "NORMAL" : 5,
                        "TEXCOORD_0" : 6
                    },
                    "indices" : 7,
                    "material" : 1
                }
            ]
        }
    ],
    "accessors" : [
        {
            "bufferView" : 0,
            "componentType" : 5126,
            "count" : 523,
            "max" : [
                2.6653389930725098,
                0.8237689137458801,
                5.123753547668457
            ],
            "min" : [
                -2.7032551765441895,
                -0.6078349947929382,
                -0.003597103524953127
            ],
            "type" : "VEC3"
        },
        {
            "bufferView" : 1,
            "componentType" : 5126,
            "count" : 523,
            "type" : "VEC3"
        },
        {
            "bufferView" : 2,
            "componentType" : 5126,
            "count" : 523,
            "type" : "VEC2"
        },
        {
            "bufferView" : 3,
            "componentType" : 5123,
            "count" : 555,
            "type" : "SCALAR"
        },
        {
            "bufferView" : 4,
            "componentType" : 5126,
            "count" : 717,
            "max" : [
                0.699619472026825,
                1.1134947538375854,
                6.242795467376709
            ],
            "min" : [
                -0.7682689428329468,
                -1.27547025680542,
                5.115165710449219
            ],
            "type" : "VEC3"
        },
        {
            "bufferView" : 5,
            "componentType" : 5126,
            "count" : 717,
            "type" : "VEC3"
        },
        {
            "bufferView" : 6,
            "componentType" : 5126,
            "count" : 717,
            "type" : "VEC2"
        },
        {
            "bufferView" : 7,
            "componentType" : 5123,
            "count" : 765,
            "type" : "SCALAR"
        }
    ],
    "bufferViews" : [
        {
            "buffer" : 0,
            "byteLength" : 6276,
            "byteOffset" : 0,
            "target": 34962
        },
        {
            "buffer" : 0,
            "byteLength" : 6276,
            "byteOffset" : 6276,
            "target": 34962
        },
        {
            "buffer" : 0,
            "byteLength" : 4184,
            "byteOffset" : 12552,
            "target": 34962
        },
        {
            "buffer" : 0,
            "byteLength" : 1110,
            "byteOffset" : 16736,
            "target": 34963
        },
        {
            "buffer" : 0,
            "byteLength" : 8604,
            "byteOffset" : 17848,
            "target": 34962
        },
        {
            "buffer" : 0,
            "byteLength" : 8604,
            "byteOffset" : 26452,
            "target": 34962
        },
        {
            "buffer" : 0,
            "byteLength" : 5736,
            "byteOffset" : 35056,
            "target": 34962
        },
        {
            "buffer" : 0,
            "byteLength" : 1530,
            "byteOffset" : 40792,
            "target": 34963
        }
    ],
    "buffers" : [
        {
            "byteLength" : 42324,
            "uri" : "data:application/octet-stream;base64,"
        }
    ]
}
