{
    "asset" : {
        "generator" : "Khronos glTF Blender I/O v1.0.5",
        "version" : "2.0"
    },
    "scene" : 0,
    "scenes" : [
        {
            "name" : "Scene",
            "nodes" : [
                0
            ]
        }
    ],
    "nodes" : [
        {
            "mesh" : 0,
            "name" : "Reggie"
        }
    ],
    "materials" : [
        {
            "doubleSided" : true,
            "name" : "initialShadingGroup",
            "pbrMetallicRoughness" : {
                "baseColorFactor" : [
                    0.800000011920929,
                    0.800000011920929,
                    0.800000011920929,
                    1
                ],
                "metallicFactor" : 0,
                "roughnessFactor" : 0.5
            }
        }
    ],
    "meshes" : [
        {
            "name" : "Reggie",
            "primitives" : [
                {
                    "attributes" : {
                        "POSITION" : 0,
                        "NORMAL" : 1,
                        "TEXCOORD_0" : 2
                    },
                    "indices" : 3,
                    "material" : 0
                }
            ]
        }
    ],
    "accessors" : [
        {
            "bufferView" : 0,
            "componentType" : 5126,
            "count" : 946,
            "max" : [
                1.5505059957504272,
                1.0852360725402832,
                6.918891906738281
            ],
            "min" : [
                -1.5505059957504272,
                -1.3037289381027222,
                -1.0364899338810574e-07
            ],
            "type" : "VEC3"
        },
        {
            "bufferView" : 1,
            "componentType" : 5126,
            "count" : 946,
            "type" : "VEC3"
        },
        {
            "bufferView" : 2,
            "componentType" : 5126,
            "count" : 946,
            "type" : "VEC2"
        },
        {
            "bufferView" : 3,
            "componentType" : 5123,
            "count" : 1404,
            "type" : "SCALAR"
        }
    ],
    "bufferViews" : [
        {
            "buffer" : 0,
            "byteLength" : 11352,
            "byteOffset" : 0,
            "target": 34962
        },
        {
            "buffer" : 0,
            "byteLength" : 11352,
            "byteOffset" : 11352,
            "target": 34962
        },
        {
            "buffer" : 0,
            "byteLength" : 7568,
            "byteOffset" : 22704,
            "target": 34962
        },
        {
            "buffer" : 0,
            "byteLength" : 2808,
            "byteOffset" : 30272,
            "target": 34963
        }
    ],
    "buffers" : [
        {
            "byteLength" : 33080,
            "uri" : "data:application/octet-stream;base64,"
        }
    ]
}
