{
  "accessors": [
    {
      "name": "polySurface6_1_0_positions",
      "componentType": 5126,
      "count": 695,
      "min": [
        -1.766929030418396,
        -1.5865830183029175,
        0
      ],
      "max": [
        1.766929030418396,
        1.9865829944610596,
        5.023465156555176
      ],
      "type": "VEC3",
      "bufferView": 0,
      "byteOffset": 0
    },
    {
      "name": "polySurface6_1_0_normals",
      "componentType": 5126,
      "count": 695,
      "min": [
        -1,
        -1,
        -1
      ],
      "max": [
        1,
        1,
        1
      ],
      "type": "VEC3",
      "bufferView": 1,
      "byteOffset": 0
    },
    {
      "name": "polySurface6_1_0_texcoords",
      "componentType": 5126,
      "count": 695,
      "min": [
        0,
        0
      ],
      "max": [
        1,
        1
      ],
      "type": "VEC2",
      "bufferView": 2,
      "byteOffset": 0
    },
    {
      "name": "polySurface6_1_0_indices",
      "componentType": 5123,
      "count": 756,
      "min": [
        0
      ],
      "max": [
        694
      ],
      "type": "SCALAR",
      "bufferView": 3,
      "byteOffset": 0
    },
    {
      "name": "polySurface6_1_1_positions",
      "componentType": 5126,
      "count": 740,
      "min": [
        -0.7327659726142883,
        -1.162047028541565,
        5.023465156555176
      ],
      "max": [
        0.7344139814376831,
        1.2269179821014404,
        6.145999908447266
      ],
      "type": "VEC3",
      "bufferView": 0,
      "byteOffset": 8340
    },
    {
      "name": "polySurface6_1_1_normals",
      "componentType": 5126,
      "count": 740,
      "min": [
        -1,
        -0.9890715479850769,
        -1
      ],
      "max": [
        1,
        0.9862444996833801,
        1
      ],
      "type": "VEC3",
      "bufferView": 1,
      "byteOffset": 8340
    },
    {
      "name": "polySurface6_1_1_texcoords",
      "componentType": 5126,
      "count": 740,
      "min": [
        -0.7950670123100281,
        -0.3044700026512146
      ],
      "max": [
        1.7562940120697021,
        1.1348979473114014
      ],
      "type": "VEC2",
      "bufferView": 2,
      "byteOffset": 5560
    },
    {
      "name": "polySurface6_1_1_indices",
      "componentType": 5123,
      "count": 792,
      "min": [
        0
      ],
      "max": [
        739
      ],
      "type": "SCALAR",
      "bufferView": 3,
      "byteOffset": 1512
    }
  ],
  "asset": {
    "generator": "obj2gltf",
    "version": "2.0"
  },
  "buffers": [
    {
      "name": "Rolo",
      "byteLength": 49016,
      "uri": "data:application/octet-stream;base64,"
    }
  ],
  "bufferViews": [
    {
      "name": "bufferView_0",
      "buffer": 0,
      "byteLength": 17220,
      "byteOffset": 0,
      "byteStride": 12,
      "target": 34962
    },
    {
      "name": "bufferView_1",
      "buffer": 0,
      "byteLength": 17220,
      "byteOffset": 17220,
      "byteStride": 12,
      "target": 34962
    },
    {
      "name": "bufferView_2",
      "buffer": 0,
      "byteLength": 11480,
      "byteOffset": 34440,
      "byteStride": 8,
      "target": 34962
    },
    {
      "name": "bufferView_3",
      "buffer": 0,
      "byteLength": 3096,
      "byteOffset": 45920,
      "target": 34963
    }
  ],
  "materials": [
    {
      "name": "Rolo:initialShadingGroup",
      "pbrMetallicRoughness": {
        "baseColorFactor": [
          0.5,
          0.5,
          0.5,
          1
        ],
        "metallicFactor": 0,
        "roughnessFactor": 1
      },
      "emissiveFactor": [
        0,
        0,
        0
      ],
      "alphaMode": "OPAQUE",
      "doubleSided": false
    },
    {
      "name": "initialShadingGroup",
      "pbrMetallicRoughness": {
        "baseColorFactor": [
          0.5,
          0.5,
          0.5,
          1
        ],
        "metallicFactor": 0,
        "roughnessFactor": 1
      },
      "emissiveFactor": [
        0,
        0,
        0
      ],
      "alphaMode": "OPAQUE",
      "doubleSided": false
    }
  ],
  "meshes": [
    {
      "name": "polySurface6_1",
      "primitives": [
        {
          "attributes": {
            "POSITION": 0,
            "NORMAL": 1,
            "TEXCOORD_0": 2
          },
          "indices": 3,
          "material": 0,
          "mode": 4
        },
        {
          "attributes": {
            "POSITION": 4,
            "NORMAL": 5,
            "TEXCOORD_0": 6
          },
          "indices": 7,
          "material": 1,
          "mode": 4
        }
      ]
    }
  ],
  "nodes": [
    {
      "name": "polySurface6",
      "mesh": 0
    }
  ],
  "scene": 0,
  "scenes": [
    {
      "nodes": [
        0
      ]
    }
  ]
}
