{
  "accessors": [
    {
      "name": "polySurface14_1_0_positions",
      "componentType": 5126,
      "count": 676,
      "min": [
        -3.336719036102295,
        -1.298218011856079,
        0
      ],
      "max": [
        3.3367199897766113,
        1.2982170581817627,
        4.431152820587158
      ],
      "type": "VEC3",
      "bufferView": 0,
      "byteOffset": 0
    },
    {
      "name": "polySurface14_1_0_normals",
      "componentType": 5126,
      "count": 676,
      "min": [
        -1,
        -1,
        -1
      ],
      "max": [
        1,
        1,
        1
      ],
      "type": "VEC3",
      "bufferView": 1,
      "byteOffset": 0
    },
    {
      "name": "polySurface14_1_0_texcoords",
      "componentType": 5126,
      "count": 676,
      "min": [
        0,
        0
      ],
      "max": [
        1,
        1
      ],
      "type": "VEC2",
      "bufferView": 2,
      "byteOffset": 0
    },
    {
      "name": "polySurface14_1_0_indices",
      "componentType": 5123,
      "count": 714,
      "min": [
        0
      ],
      "max": [
        675
      ],
      "type": "SCALAR",
      "bufferView": 3,
      "byteOffset": 0
    },
    {
      "name": "polySurface14_1_1_positions",
      "componentType": 5126,
      "count": 731,
      "min": [
        -0.7317950129508972,
        -1.2435230016708374,
        4.431152820587158
      ],
      "max": [
        0.7353860139846802,
        1.145442008972168,
        5.553689002990723
      ],
      "type": "VEC3",
      "bufferView": 0,
      "byteOffset": 8112
    },
    {
      "name": "polySurface14_1_1_normals",
      "componentType": 5126,
      "count": 731,
      "min": [
        -1,
        -0.9890715479850769,
        -1
      ],
      "max": [
        1,
        0.9862444996833801,
        1
      ],
      "type": "VEC3",
      "bufferView": 1,
      "byteOffset": 8112
    },
    {
      "name": "polySurface14_1_1_texcoords",
      "componentType": 5126,
      "count": 731,
      "min": [
        -0.7950670123100281,
        -0.3044700026512146
      ],
      "max": [
        1.7562940120697021,
        1.1348979473114014
      ],
      "type": "VEC2",
      "bufferView": 2,
      "byteOffset": 5408
    },
    {
      "name": "polySurface14_1_1_indices",
      "componentType": 5123,
      "count": 774,
      "min": [
        0
      ],
      "max": [
        730
      ],
      "type": "SCALAR",
      "bufferView": 3,
      "byteOffset": 1428
    }
  ],
  "asset": {
    "generator": "obj2gltf",
    "version": "2.0"
  },
  "buffers": [
    {
      "name": "toob",
      "byteLength": 48000,
      "uri": "data:application/octet-stream;base64,"
    }
  ],
  "bufferViews": [
    {
      "name": "bufferView_0",
      "buffer": 0,
      "byteLength": 16884,
      "byteOffset": 0,
      "byteStride": 12,
      "target": 34962
    },
    {
      "name": "bufferView_1",
      "buffer": 0,
      "byteLength": 16884,
      "byteOffset": 16884,
      "byteStride": 12,
      "target": 34962
    },
    {
      "name": "bufferView_2",
      "buffer": 0,
      "byteLength": 11256,
      "byteOffset": 33768,
      "byteStride": 8,
      "target": 34962
    },
    {
      "name": "bufferView_3",
      "buffer": 0,
      "byteLength": 2976,
      "byteOffset": 45024,
      "target": 34963
    }
  ],
  "materials": [
    {
      "name": "toob:initialShadingGroup",
      "pbrMetallicRoughness": {
        "baseColorFactor": [
          0.5,
          0.5,
          0.5,
          1
        ],
        "metallicFactor": 0,
        "roughnessFactor": 1
      },
      "emissiveFactor": [
        0,
        0,
        0
      ],
      "alphaMode": "OPAQUE",
      "doubleSided": false
    },
    {
      "name": "initialShadingGroup",
      "pbrMetallicRoughness": {
        "baseColorFactor": [
          0.5,
          0.5,
          0.5,
          1
        ],
        "metallicFactor": 0,
        "roughnessFactor": 1
      },
      "emissiveFactor": [
        0,
        0,
        0
      ],
      "alphaMode": "OPAQUE",
      "doubleSided": false
    }
  ],
  "meshes": [
    {
      "name": "polySurface14_1",
      "primitives": [
        {
          "attributes": {
            "POSITION": 0,
            "NORMAL": 1,
            "TEXCOORD_0": 2
          },
          "indices": 3,
          "material": 0,
          "mode": 4
        },
        {
          "attributes": {
            "POSITION": 4,
            "NORMAL": 5,
            "TEXCOORD_0": 6
          },
          "indices": 7,
          "material": 1,
          "mode": 4
        }
      ]
    }
  ],
  "nodes": [
    {
      "name": "polySurface14",
      "mesh": 0
    }
  ],
  "scene": 0,
  "scenes": [
    {
      "nodes": [
        0
      ]
    }
  ]
}
